<svg xmlns="http://www.w3.org/2000/svg" viewBox="0 0 512 512">
  <rect width="512" height="512" rx="96" fill="#1f6f64"/>
  <circle cx="170" cy="144" r="42" fill="#f7f4ee"/>
  <path d="M264 118c22 4 43 15 59 32l37 39c14 15 13 38-2 52s-38 13-52-2l-25-26-38 63 60 37c12 8 21 20 25 34l24 77c6 20-5 40-25 46-19 6-40-5-46-24l-18-58-84-52c-30-18-39-57-21-87l39-65-36 13-26 51c-9 18-31 25-49 16-18-10-25-32-16-49l33-65c8-15 21-26 37-32l66-25c12-5 25-6 38-3Z" fill="#f7f4ee"/>
  <path d="M95 397h126c15 0 27 12 27 27s-12 27-27 27H95c-15 0-27-12-27-27s12-27 27-27Z" fill="#d8e7a4"/>
</svg>
